<svg xmlns="http://www.w3.org/2000/svg" xmlns:xlink="http://www.w3.org/1999/xlink" width="256" height="256" viewBox="0 0 256 256">
  <metadata><?xpacket begin="﻿" id="W5M0MpCehiHzreSzNTczkc9d"?>
<x:xmpmeta xmlns:x="adobe:ns:meta/" x:xmptk="Adobe XMP Core 5.6-c140 79.160451, 2017/05/06-01:08:21        ">
   <rdf:RDF xmlns:rdf="http://www.w3.org/1999/02/22-rdf-syntax-ns#">
      <rdf:Description rdf:about=""/>
   </rdf:RDF>
</x:xmpmeta>
                                                                                                    
                                                                                                    
                                                                                                    
                                                                                                    
                                                                                                    
                                                                                                    
                                                                                                    
                                                                                                    
                                                                                                    
                                                                                                    
                                                                                                    
                                                                                                    
                                                                                                    
                                                                                                    
                                                                                                    
                                                                                                    
                                                                                                    
                                                                                                    
                                                                                                    
                                                                                                    
                           
<?xpacket end="w"?></metadata>
<defs>
    <style>
      .cls-1 {
        fill: #959595;
        fill-rule: evenodd;
        filter: url(#filter);
      }
    </style>
    <filter id="filter" x="1.656" y="2.531" width="252.188" height="251.781" filterUnits="userSpaceOnUse">
      <feFlood result="flood" flood-color="#595959"/>
      <feComposite result="composite" operator="in" in2="SourceGraphic"/>
      <feBlend result="blend" in2="SourceGraphic"/>
    </filter>
  </defs>
  <path class="cls-1" d="M245.71,81.936l-51.181,52.073s-23.875,24.03-48.2,2.561l19.193-20.061s3.822,3.6,8.957-1.707,50.754-50.366,50.754-50.366,4.443-5.415.427-9.817c-2.157-2.364-12.69-13.631-23.9-23.863-4.4-4.017-9.812.427-9.812,0.427S146.916,76.814,141.611,81.95s-1.706,8.959-1.706,8.959l-20.052,19.2c-21.46-24.327,2.56-48.208,2.56-48.208l52.049-51.194c21.711-17.834,43.517-.853,43.517-0.853L246.563,38.4S263.539,60.216,245.71,81.936Zm-87.434-4.268s12.337-4.727,19.193,2.134,0.426,17.927.426,17.927L97.28,179.2s-12.342,4.725-19.2-2.133-0.427-17.92-.427-17.92ZM81.067,142.08c-5.137,5.3-50.773,50.347-50.773,50.347s-4.444,5.413-.427,9.813c2.158,2.364,12.7,13.626,23.906,23.854,4.4,4.015,9.816-.426,9.816-0.426s45.055-45.615,50.362-50.749,1.707-8.955,1.707-8.955l20.059-19.191c21.468,24.318-2.561,48.19-2.561,48.19L81.087,246.137c-21.719,17.827-43.533.853-43.533,0.853L8.96,218.453s-16.982-21.807.853-43.52l51.2-52.053s23.883-24.021,48.214-2.56l-19.2,20.053S86.2,136.775,81.067,142.08Z"/>
</svg>
