<svg xmlns="http://www.w3.org/2000/svg" xmlns:xlink="http://www.w3.org/1999/xlink" width="3183" height="3183" viewBox="0 0 3183 3183">
  <metadata><?xpacket begin="﻿" id="W5M0MpCehiHzreSzNTczkc9d"?>
<x:xmpmeta xmlns:x="adobe:ns:meta/" x:xmptk="Adobe XMP Core 5.6-c140 79.160451, 2017/05/06-01:08:21        ">
   <rdf:RDF xmlns:rdf="http://www.w3.org/1999/02/22-rdf-syntax-ns#">
      <rdf:Description rdf:about=""/>
   </rdf:RDF>
</x:xmpmeta>
                                                                                                    
                                                                                                    
                                                                                                    
                                                                                                    
                                                                                                    
                                                                                                    
                                                                                                    
                                                                                                    
                                                                                                    
                                                                                                    
                                                                                                    
                                                                                                    
                                                                                                    
                                                                                                    
                                                                                                    
                                                                                                    
                                                                                                    
                                                                                                    
                                                                                                    
                                                                                                    
                           
<?xpacket end="w"?></metadata>
<defs>
    <style>
      .cls-1 {
        fill: #fff;
        filter: url(#filter);
      }

      .cls-2 {
        fill: #00d638;
      }

      .cls-10, .cls-2, .cls-3, .cls-4, .cls-8 {
        fill-rule: evenodd;
      }

      .cls-3 {
        fill: #00c038;
      }

      .cls-4, .cls-5 {
        fill: #00aa38;
      }

      .cls-6 {
        fill: #009438;
      }

      .cls-7, .cls-8 {
        fill: #007e38;
      }

      .cls-10, .cls-9 {
        fill: #006838;
      }
    </style>
    <filter id="filter" x="59" y="82" width="3059" height="3059" filterUnits="userSpaceOnUse">
      <feFlood result="flood" flood-color="#fff"/>
      <feComposite result="composite" operator="in" in2="SourceGraphic"/>
      <feBlend result="blend" in2="SourceGraphic"/>
    </filter>
  </defs>
  <circle class="cls-1" cx="1588.5" cy="1611.5" r="1529.5"/>
  <path id="Ellipse_1_copy" data-name="Ellipse 1 copy" class="cls-2" d="M2059.19,711a124.936,124.936,0,1,1-124.85,124.935A124.9,124.9,0,0,1,2059.19,711Z"/>
  <path id="Ellipse_1_copy_2" data-name="Ellipse 1 copy 2" class="cls-3" d="M2199.42,1054.11a118.875,118.875,0,1,1-118.8,118.87A118.836,118.836,0,0,1,2199.42,1054.11Z"/>
  <path id="Ellipse_1_copy_3" data-name="Ellipse 1 copy 3" class="cls-3" d="M1856.54,1054.11a118.875,118.875,0,1,1-118.8,118.87A118.836,118.836,0,0,1,1856.54,1054.11Z"/>
  <path id="Ellipse_1_copy_4" data-name="Ellipse 1 copy 4" class="cls-4" d="M1997.23,1397.21a112.35,112.35,0,1,1-112.27,112.35A112.315,112.315,0,0,1,1997.23,1397.21Z"/>
  <circle id="Ellipse_1_copy_5" data-name="Ellipse 1 copy 5" class="cls-5" cx="1655.28" cy="1509.565" r="112.28"/>
  <circle id="Ellipse_1_copy_6" data-name="Ellipse 1 copy 6" class="cls-6" cx="1795.97" cy="1846.14" r="105.75"/>
  <circle id="Ellipse_1_copy_7" data-name="Ellipse 1 copy 7" class="cls-6" cx="1453.09" cy="1846.14" r="105.75"/>
  <circle id="Ellipse_1_copy_8" data-name="Ellipse 1 copy 8" class="cls-7" cx="1594.25" cy="2183.19" r="99.69"/>
  <path id="Ellipse_1_copy_9" data-name="Ellipse 1 copy 9" class="cls-8" d="M1251.37,2083.42a99.765,99.765,0,1,1-99.7,99.77A99.738,99.738,0,0,1,1251.37,2083.42Z"/>
  <circle id="Ellipse_1_copy_10" data-name="Ellipse 1 copy 10" class="cls-9" cx="1392.065" cy="2519.765" r="93.185"/>
  <path id="Ellipse_1_copy_11" data-name="Ellipse 1 copy 11" class="cls-10" d="M1049.18,2426.53a93.235,93.235,0,1,1-93.175,93.23A93.2,93.2,0,0,1,1049.18,2426.53Z"/>
  <path id="Ellipse_1_copy_12" data-name="Ellipse 1 copy 12" class="cls-10" d="M1215.03,1469.94a74.585,74.585,0,1,1-74.54,74.58A74.558,74.558,0,0,1,1215.03,1469.94Z"/>
  <path id="Ellipse_1_copy_13" data-name="Ellipse 1 copy 13" class="cls-8" d="M1354.79,1126.83a81.115,81.115,0,1,1-81.06,81.11A81.1,81.1,0,0,1,1354.79,1126.83Z"/>
  <path id="Ellipse_1_copy_14" data-name="Ellipse 1 copy 14" class="cls-8" d="M1012.84,1126.83a81.115,81.115,0,1,1-81.06,81.11A81.088,81.088,0,0,1,1012.84,1126.83Z"/>
  <circle id="Ellipse_1_copy_15" data-name="Ellipse 1 copy 15" class="cls-9" cx="1154" cy="870.89" r="87.12"/>
  <path id="Ellipse_1_copy_16" data-name="Ellipse 1 copy 16" class="cls-10" d="M811.118,783.724A87.175,87.175,0,1,1,724,870.9,87.146,87.146,0,0,1,811.118,783.724Z"/>
  <path class="cls-2" d="M2401.15,711a124.936,124.936,0,1,1-124.86,124.935A124.894,124.894,0,0,1,2401.15,711Z"/>
</svg>
